<svg width="30" height="30" viewBox="0 0 30 30" fill="none" xmlns="http://www.w3.org/2000/svg">
<path d="M15 2.5C8.1075 2.5 2.5 8.1075 2.5 15C2.5 21.8925 8.1075 27.5 15 27.5C21.8925 27.5 27.5 21.8925 27.5 15C27.5 8.1075 21.8925 2.5 15 2.5ZM15 25C9.48625 25 5 20.5138 5 15C5 9.48625 9.48625 5 15 5C20.5138 5 25 9.48625 25 15C25 20.5138 20.5138 25 15 25Z" fill="#3C93F0"/>
<path d="M16.6162 7.86621L9.48242 15L16.6162 22.1337L18.3837 20.3662L13.0174 15L18.3837 9.63371L16.6162 7.86621Z" fill="#3C93F0"/>
</svg>
