<svg width="13" height="13" viewBox="0 0 13 13" fill="none" xmlns="http://www.w3.org/2000/svg">
<path d="M12.7169 4.73688C12.6363 4.50063 12.4231 4.33375 12.1744 4.31438L8.61127 4.03125L7.06939 0.618125C6.96877 0.39375 6.74564 0.25 6.50002 0.25C6.25439 0.25 6.03127 0.39375 5.93064 0.6175L4.38877 4.03125L0.825642 4.31438C0.581267 4.33375 0.370642 4.49438 0.287517 4.725C0.204392 4.95563 0.263142 5.21375 0.438767 5.385L3.07189 7.95188L2.14064 11.9844C2.08314 12.2338 2.18377 12.4931 2.39439 12.6388C2.50189 12.7125 2.62564 12.75 2.75002 12.75C2.87064 12.75 2.99189 12.715 3.09689 12.645L6.50002 10.3763L9.90314 12.645C10.1206 12.79 10.4063 12.7844 10.6188 12.63C10.83 12.4756 10.9231 12.205 10.8513 11.9538L9.70814 7.95375L12.5431 5.4025C12.7288 5.235 12.7969 4.97375 12.7169 4.73688Z" fill="#3E3E3E"/>
</svg>
